# xmcd
#
# Track frame offsets:
#	150
#	11259
#	21344
#	33786
#	45080
#	56638
#	68351
#	81174
#	102179
#	114277
#	130347
#	144183
#	163587
#	184445
#	216952
#	225511
#
# Disc length: 3128 seconds
#
# Revision: 5
# Processed by: cddbd v1.5.2PL0 Copyright (c) Steve Scherf et al.
# Submitted via: audiograbber 1.83.01
#
DISCID=c20c3610
DTITLE=Various Artist - King Of The Road
DYEAR=2001
DGENRE=Country
TTITLE0=Roger Miller - King Of The Road
TTITLE1=Fats Domino - I'm Walkin'
TTITLE2=Dolly Parton - 9 To 5
TTITLE3=Willie Nelson - On The Road Again
TTITLE4=Johnny Cash - I Walk The Line
TTITLE5=Dave Dudley - Six Days On The Road
TTITLE6=Nat King Cole - Route 66
TTITLE7=Waylon Jennings - Me And Bobby McGee
TTITLE8=Tammy Wynette - Stand By Your Man
TTITLE9=Chris Farlowe - Out Of Time
TTITLE10=Van Morrison - Brown Eyed Girl
TTITLE11=Bill Withers - Lean On Me
TTITLE12=Eric Burdon - House Of The Rising Sun
TTITLE13=The Outlaws - (Ghost) Riders In The Sky
TTITLE14=The Box Tops - The Letter
TTITLE15=Al Jarreau - Ain't No Sunshine
EXTD=ID3G:   2
EXTT0=
EXTT1=
EXTT2=
EXTT3=
EXTT4=
EXTT5=
EXTT6=
EXTT7=
EXTT8=
EXTT9=
EXTT10=
EXTT11=
EXTT12=
EXTT13=
EXTT14=
EXTT15=
PLAYORDER=
